<svg xmlns="http://www.w3.org/2000/svg" viewBox="0 0 503.607 503.607" width="512" height="512"><g fill="#777"><circle cx="428.066" cy="493.771" r="8.393"/><circle cx="461.639" cy="493.771" r="8.393"/><circle cx="495.213" cy="493.771" r="8.393"/><path d="M0 493.755c0-.015.003-.029.003-.044 0-.048.006-.094.007-.141-.002.062-.01.123-.01.185z"/><path d="M209.836 485.379H69.515l62.565-17.517-1.251-47.591c-10.551 1.444-21.109 2.896-31.668 4.339-6.211.856-17.349 4.608-21.89-1.502-2.577-3.475-1.427-7.655-.89-11.566l1.435-10.5c1.074-7.806 2.149-15.603 3.215-23.409l.957-6.975-46.5-4.835L.311 491.506c-.026.093-.035.187-.058.281-.053.213-.098.43-.134.651-.016.102-.035.205-.047.307a8.295 8.295 0 0 0-.061.825 8.45 8.45 0 0 1 .058-.779c-.035.306-.06.612-.065.92 0 .021-.003.04-.003.061a8.396 8.396 0 0 0 8.393 8.393h201.443c4.633 0 8.393-3.76 8.393-8.393s-3.761-8.393-8.394-8.393zM.237 491.862zm47.664-25.73l-19.246 19.246H8.393l27.64-31.115a8.383 8.383 0 0 1 11.868 0 8.385 8.385 0 0 1 0 11.869zm279.443 19.246H243.41c-4.633 0-8.393 3.76-8.393 8.393s3.76 8.393 8.393 8.393h83.934c4.633 0 8.393-3.76 8.393-8.393s-3.76-8.393-8.393-8.393zm67.148 0h-33.574c-4.633 0-8.393 3.76-8.393 8.393s3.76 8.393 8.393 8.393h33.574c4.633 0 8.393-3.76 8.393-8.393s-3.76-8.393-8.393-8.393zm41.966-312.844L329.635 65.702l-11.877 11.877L424.59 184.411z"/><path d="M45.365 349.972l43.016 4.465 187.09-187.09a8.383 8.383 0 0 1 11.868 0c3.282 3.273 3.282 8.586 0 11.868L99.41 367.137l-5.657 41.271 41.271-5.657 187.929-187.929c3.273-3.273 8.586-3.273 11.868 0 3.273 3.282 3.273 8.595 0 11.868L147.438 414.081l1.209 46.265 264.074-264.075L305.889 89.448 45.365 349.972zM341.5 53.837l106.832 106.832 27.211-27.22L368.72 26.617zm137.098-30.271C464.329 9.297 445.36 1.441 425.182 1.441c-15.948 0-31.106 4.977-43.822 14.084l105.279 105.279c9.107-12.716 14.084-27.875 14.084-43.822 0-20.178-7.856-39.147-22.125-53.416z"/></g></svg>