<svg xmlns="http://www.w3.org/2000/svg" viewBox="0 0 393.382 393.382" width="512" height="512"><path d="M192.411 371.663H48.103C21.379 371.663 0 350.284 0 323.561V179.252c0-26.724 21.379-48.103 48.103-48.103h144.308c26.724 0 48.103 21.379 48.103 48.103V323.56c0 26.724-21.379 48.103-48.103 48.103zM48.103 163.218c-8.552 0-16.034 7.483-16.034 16.034V323.56c0 8.552 7.483 16.034 16.034 16.034h144.308c8.552 0 16.034-7.483 16.034-16.034V179.252c0-8.552-7.483-16.034-16.034-16.034H48.103z" fill="#777"/><path d="M321.754 266.906c-3.207 0-5.345-1.069-8.552-2.138-7.483-4.276-9.621-14.965-5.345-22.448 31-48.103 23.517-111.171-17.103-151.791s-102.619-48.102-151.79-17.103c-7.483 4.276-17.103 2.138-22.448-5.345-4.276-7.483-2.138-17.103 5.345-22.448 60.93-38.482 140.032-29.931 191.342 21.379s59.861 129.343 21.379 191.342c-3.208 5.345-7.483 8.552-12.828 8.552z" fill="#777"/><path d="M315.34 287.216c-6.414 0-12.827-4.276-14.965-9.621l-25.655-61.999c-3.207-8.552 1.069-17.103 8.552-21.379 8.552-3.207 17.103 1.069 21.379 8.552l19.241 47.034 47.034-19.241c8.552-3.207 17.103 1.069 21.379 8.552 3.207 8.552-1.069 17.103-8.552 21.379l-61.999 25.655c-2.138 1.068-4.276 1.068-6.414 1.068z" fill="#777"/></svg>