<svg xmlns="http://www.w3.org/2000/svg" viewBox="0 0 400 400" width="512" height="512"><g fill="#777"><path d="M360 48H40C18 48 0 66 0 88v224c0 22 18 40 40 40h320c22 0 40-18 40-40V88c0-22-18-40-40-40zM256 336H40c-13.2 0-24-10.8-24-24V88c0-13.2 10.8-24 24-24h216v272zm128-24c0 13.2-10.8 24-24 24h-88V64h88c13.2 0 24 10.8 24 24v224z"/><path d="M48 108h8c4.4 0 8-3.6 8-8s-3.6-8-8-8h-8c-4.4 0-8 3.6-8 8s3.6 8 8 8zm36 0h8c4.4 0 8-3.6 8-8s-3.6-8-8-8h-8c-4.4 0-8 3.6-8 8s3.6 8 8 8zm36 0h8c4.4 0 8-3.6 8-8s-3.6-8-8-8h-8c-4.4 0-8 3.6-8 8s3.6 8 8 8zm220 8h-28c-4.4 0-8 3.6-8 8s3.6 8 8 8h28c4.4 0 8-3.6 8-8s-3.6-8-8-8zm0 40h-28c-4.4 0-8 3.6-8 8s3.6 8 8 8h28c4.4 0 8-3.6 8-8s-3.6-8-8-8zm0 40h-28c-4.4 0-8 3.6-8 8s3.6 8 8 8h28c4.4 0 8-3.6 8-8s-3.6-8-8-8z"/></g></svg>