<svg xmlns="http://www.w3.org/2000/svg" viewBox="0 0 512 512" width="512" height="512"><path d="M480.6 162.6h-96.3c.4-1.5.6-44.7.6-44.7 0-11.3-9.1-20.4-20.4-20.4h-24.2V64.6c0-11.3-9.1-20.4-20.4-20.4H192.2c-11.3 0-20.4 9.2-20.4 20.4v32.9h-24.2c-11.3 0-20.4 9.1-20.4 20.4 0 0 .2 43.1.6 44.7H31.5c-11.3 0-20.4 9.1-20.4 20.4v264.4c0 11.3 9.1 20.4 20.4 20.4h449.2c11.3 0 20.4-9.1 20.4-20.4V183c-.1-11.3-9.2-20.4-20.5-20.4zM168 138.3h24.2c11.3 0 20.4-9.1 20.4-20.4V85h86.9v32.9c0 11.3 9.1 20.4 20.4 20.4h24.2s.2 22.7.6 24.2H167.4c.4-1.5.6-24.2.6-24.2zM460.2 427H51.9V317.1h183.8v18.5c0 11.3 9.1 20.4 20.4 20.4s20.4-9.1 20.4-20.4v-18.5h183.8V427zm-.1-150.7H276.3v-16.4c0-11.3-9.1-20.4-20.4-20.4s-20.4 9.1-20.4 20.4v16.4H51.8v-72.9h408.3v72.9z" fill="#777"/></svg>