<?xml version="1.0" encoding="iso-8859-1"?>
<!-- Generator: Adobe Illustrator 19.0.0, SVG Export Plug-In . SVG Version: 6.00 Build 0)  -->
<svg xmlns="http://www.w3.org/2000/svg" xmlns:xlink="http://www.w3.org/1999/xlink" version="1.1" id="Capa_1" x="0px" y="0px" viewBox="0 0 503.607 503.607" style="enable-background:new 0 0 503.607 503.607;" xml:space="preserve" width="512px" height="512px">
<g>
	<g>
		<g>
			<circle cx="428.066" cy="493.771" r="8.393" fill="#777777"/>
			<circle cx="461.639" cy="493.771" r="8.393" fill="#777777"/>
			<circle cx="495.213" cy="493.771" r="8.393" fill="#777777"/>
			<path d="M0,493.755c0-0.015,0.003-0.029,0.003-0.044c0-0.048,0.006-0.094,0.007-0.141C0.008,493.632,0,493.693,0,493.755z" fill="#777777"/>
			<path d="M209.836,485.379H69.515l62.565-17.517l-1.251-47.591c-10.551,1.444-21.109,2.896-31.668,4.339     c-6.211,0.856-17.349,4.608-21.89-1.502c-2.577-3.475-1.427-7.655-0.89-11.566l1.435-10.5c1.074-7.806,2.149-15.603,3.215-23.409     c0.319-2.325,0.638-4.65,0.957-6.975l-46.5-4.835L0.311,491.506c-0.026,0.093-0.035,0.187-0.058,0.281     C0.2,492,0.155,492.217,0.119,492.438c-0.016,0.102-0.035,0.205-0.047,0.307c-0.034,0.271-0.054,0.546-0.061,0.825     c0.008-0.261,0.026-0.52,0.058-0.779c-0.035,0.306-0.06,0.612-0.065,0.92c0,0.021-0.003,0.04-0.003,0.061     c0,4.633,3.76,8.393,8.393,8.393h201.443c4.633,0,8.393-3.76,8.393-8.393S214.469,485.379,209.836,485.379z M0.237,491.862     c-0.039,0.17-0.077,0.34-0.105,0.511C0.162,492.201,0.197,492.031,0.237,491.862z M47.901,466.132l-19.246,19.246H8.393     l27.64-31.115c3.282-3.282,8.586-3.282,11.868,0C51.183,457.546,51.183,462.85,47.901,466.132z" fill="#777777"/>
			<path d="M327.344,485.378H243.41c-4.633,0-8.393,3.76-8.393,8.393s3.76,8.393,8.393,8.393h83.934c4.633,0,8.393-3.76,8.393-8.393     S331.977,485.378,327.344,485.378z" fill="#777777"/>
			<path d="M394.492,485.378h-33.574c-4.633,0-8.393,3.76-8.393,8.393s3.76,8.393,8.393,8.393h33.574     c4.633,0,8.393-3.76,8.393-8.393S399.125,485.378,394.492,485.378z" fill="#777777"/>
			<polygon points="436.458,172.534 329.635,65.702 317.758,77.579 424.59,184.411    " fill="#777777"/>
			<path d="M45.365,349.972l43.016,4.465l187.09-187.09c3.282-3.282,8.586-3.282,11.868,0c3.282,3.273,3.282,8.586,0,11.868     L99.41,367.137l-5.657,41.271l41.271-5.657l187.929-187.929c3.273-3.273,8.586-3.273,11.868,0c3.273,3.282,3.273,8.595,0,11.868     L147.438,414.081l1.209,46.265l264.074-264.075L305.889,89.448L45.365,349.972z" fill="#777777"/>
			<polygon points="341.5,53.837 448.332,160.669 475.543,133.449 368.72,26.617    " fill="#777777"/>
			<path d="M478.598,23.566C464.329,9.297,445.36,1.441,425.182,1.441c-15.948,0-31.106,4.977-43.822,14.084l105.279,105.279     c9.107-12.716,14.084-27.875,14.084-43.822C500.723,56.804,492.867,37.835,478.598,23.566z" fill="#777777"/>
		</g>
	</g>
</g>
<g>
</g>
<g>
</g>
<g>
</g>
<g>
</g>
<g>
</g>
<g>
</g>
<g>
</g>
<g>
</g>
<g>
</g>
<g>
</g>
<g>
</g>
<g>
</g>
<g>
</g>
<g>
</g>
<g>
</g>
</svg>
