<?xml version="1.0" encoding="iso-8859-1"?>
<!-- Generator: Adobe Illustrator 19.1.0, SVG Export Plug-In . SVG Version: 6.00 Build 0)  -->
<svg xmlns="http://www.w3.org/2000/svg" xmlns:xlink="http://www.w3.org/1999/xlink" version="1.1" id="Capa_1" x="0px" y="0px" viewBox="0 0 393.382 393.382" style="enable-background:new 0 0 393.382 393.382;" xml:space="preserve" width="512px" height="512px">
<g>
	<g>
		<path d="M192.411,371.663H48.103C21.379,371.663,0,350.284,0,323.561V179.252    c0-26.724,21.379-48.103,48.103-48.103h144.308c26.724,0,48.103,21.379,48.103,48.103v144.308    C240.514,350.284,219.135,371.663,192.411,371.663z M48.103,163.218c-8.552,0-16.034,7.483-16.034,16.034v144.308    c0,8.552,7.483,16.034,16.034,16.034h144.308c8.552,0,16.034-7.483,16.034-16.034V179.252c0-8.552-7.483-16.034-16.034-16.034    H48.103z" fill="#777777"/>
		<g>
			<path d="M321.754,266.906c-3.207,0-5.345-1.069-8.552-2.138c-7.483-4.276-9.621-14.965-5.345-22.448     c31-48.103,23.517-111.171-17.103-151.791S188.135,42.427,138.964,73.426c-7.483,4.276-17.103,2.138-22.448-5.345     c-4.276-7.483-2.138-17.103,5.345-22.448c60.93-38.482,140.032-29.931,191.342,21.379c51.31,51.31,59.861,129.343,21.379,191.342     C331.374,263.699,327.099,266.906,321.754,266.906z" fill="#777777"/>
		</g>
		<path d="M315.34,287.216c-6.414,0-12.827-4.276-14.965-9.621l-25.655-61.999    c-3.207-8.552,1.069-17.103,8.552-21.379c8.552-3.207,17.103,1.069,21.379,8.552l19.241,47.034l47.034-19.241    c8.552-3.207,17.103,1.069,21.379,8.552c3.207,8.552-1.069,17.103-8.552,21.379l-61.999,25.655    C319.616,287.216,317.478,287.216,315.34,287.216z" fill="#777777"/>
	</g>
</g>
<g>
</g>
<g>
</g>
<g>
</g>
<g>
</g>
<g>
</g>
<g>
</g>
<g>
</g>
<g>
</g>
<g>
</g>
<g>
</g>
<g>
</g>
<g>
</g>
<g>
</g>
<g>
</g>
<g>
</g>
</svg>
