<?xml version="1.0" encoding="utf-8"?>
<!DOCTYPE svg PUBLIC "-//W3C//DTD SVG 1.1//EN" "http://www.w3.org/Graphics/SVG/1.1/DTD/svg11.dtd">
<svg xmlns="http://www.w3.org/2000/svg" xmlns:xlink="http://www.w3.org/1999/xlink" version="1.1" viewBox="0 0 512 512" enable-background="new 0 0 512 512" width="512px" height="512px">
  <g>
    <g>
      <path d="m480.6,162.6h-96.3c0.4-1.5 0.6-44.7 0.6-44.7 0-11.3-9.1-20.4-20.4-20.4h-24.2v-32.9c0-11.3-9.1-20.4-20.4-20.4h-127.7c-11.3,0-20.4,9.2-20.4,20.4v32.9h-24.2c-11.3,0-20.4,9.1-20.4,20.4 0,0 0.2,43.1 0.6,44.7h-96.3c-11.3,0-20.4,9.1-20.4,20.4v264.4c0,11.3 9.1,20.4 20.4,20.4h449.2c11.3,0 20.4-9.1 20.4-20.4v-264.4c-0.1-11.3-9.2-20.4-20.5-20.4zm-312.6-24.3h24.2c11.3,0 20.4-9.1 20.4-20.4v-32.9h86.9v32.9c0,11.3 9.1,20.4 20.4,20.4h24.2c0,0 0.2,22.7 0.6,24.2h-177.3c0.4-1.5 0.6-24.2 0.6-24.2zm292.2,288.7h-408.3v-109.9h183.8v18.5c0,11.3 9.1,20.4 20.4,20.4s20.4-9.1 20.4-20.4v-18.5h183.8v109.9zm-.1-150.7h-183.8v-16.4c0-11.3-9.1-20.4-20.4-20.4s-20.4,9.1-20.4,20.4v16.4h-183.7v-72.9h408.3v72.9z" fill="#777777"/>
    </g>
  </g>
</svg>
